<svg width="29" height="29" viewBox="0 0 29 29" fill="none" xmlns="http://www.w3.org/2000/svg">
<path d="M1.1546 27.8431L1.15458 27.8431L1.15598 27.8445C1.32705 28.0169 1.56348 28.1233 1.82768 28.1233H6.92232C7.45202 28.1233 7.875 27.6724 7.875 27.1546C7.875 26.6226 7.45913 26.1858 6.92232 26.1858H4.11575L12.0349 18.2667C12.4095 17.892 12.3899 17.274 12.0238 16.9078C11.6477 16.5317 11.0458 16.5157 10.6649 16.8967L2.8125 24.7491V22.076C2.8125 21.5463 2.36155 21.1233 1.84375 21.1233C1.31177 21.1233 0.875 21.5392 0.875 22.076V27.1706C0.875 27.4329 0.986105 27.6677 1.1546 27.8431ZM16.9612 18.2667L24.8803 26.1858H22.0739C21.5371 26.1858 21.1212 26.6226 21.1212 27.1546C21.1212 27.6724 21.5442 28.1233 22.0739 28.1233H27.1685C27.4327 28.1233 27.6691 28.0169 27.8402 27.8445L27.8416 27.8431C28.0101 27.6677 28.1212 27.4329 28.1212 27.1706V22.076C28.1212 21.5392 27.6844 21.1233 27.1524 21.1233C26.6346 21.1233 26.1837 21.5463 26.1837 22.076V24.7491L18.3313 16.8967C17.9504 16.5157 17.3485 16.5317 16.9724 16.9078C16.6063 17.274 16.5865 17.892 16.9612 18.2667ZM4.11575 2.8125H6.92232C7.45913 2.8125 7.875 2.37573 7.875 1.84375C7.875 1.32595 7.45202 0.875 6.92232 0.875H1.82768C1.56348 0.875 1.32705 0.98143 1.15598 1.15385L1.15597 1.15384L1.15459 1.15527C0.986106 1.33059 0.875 1.56539 0.875 1.82768V6.92232C0.875 7.45913 1.31177 7.875 1.84375 7.875C2.36155 7.875 2.8125 7.45202 2.8125 6.92232V4.24924L10.6649 12.1016C11.0458 12.4826 11.6477 12.4666 12.0238 12.0905C12.3899 11.7243 12.4095 11.1063 12.0349 10.7316L4.11575 2.8125ZM27.8416 1.15527L27.8416 1.15526L27.8402 1.15385C27.6691 0.98143 27.4327 0.875 27.1685 0.875H22.0739C21.5442 0.875 21.1212 1.32595 21.1212 1.84375C21.1212 2.37574 21.5371 2.8125 22.0739 2.8125H24.7468L16.8945 10.6649C16.5198 11.0396 16.5395 11.6576 16.9057 12.0238C17.2818 12.3999 17.8836 12.4159 18.2646 12.0349L26.1837 4.11578V6.92232C26.1837 7.45202 26.6346 7.875 27.1524 7.875C27.6844 7.875 28.1212 7.45913 28.1212 6.92232V1.82768C28.1212 1.56539 28.0101 1.33059 27.8416 1.15527Z" fill="white" stroke="black" stroke-width="0.25"/>
</svg>
